<svg xmlns="http://www.w3.org/2000/svg" width="48" height="48" viewBox="0 0 48 48" fill="none">
  <!-- Base/ground -->
  <rect x="8" y="40" width="32" height="4" rx="2" fill="#1B2838"/>
  <!-- Tower body -->
  <path d="M18 40V16h12v24H18z" fill="#1B2838"/>
  <!-- Tower taper -->
  <path d="M20 16L22 8h4l2 8H20z" fill="#1B2838"/>
  <!-- Light housing -->
  <rect x="21" y="5" width="6" height="5" rx="1" fill="#D4A853"/>
  <!-- Light beams -->
  <path d="M24 7.5L10 2" stroke="#D4A853" stroke-width="1.5" stroke-linecap="round" opacity="0.7"/>
  <path d="M24 7.5L38 2" stroke="#D4A853" stroke-width="1.5" stroke-linecap="round" opacity="0.7"/>
  <path d="M24 7.5L6 7.5" stroke="#D4A853" stroke-width="1.5" stroke-linecap="round" opacity="0.7"/>
  <path d="M24 7.5L42 7.5" stroke="#D4A853" stroke-width="1.5" stroke-linecap="round" opacity="0.7"/>
  <!-- Cap -->
  <path d="M22 5L24 2l2 3H22z" fill="#0F8F7D"/>
  <!-- Windows -->
  <rect x="22" y="20" width="4" height="4" rx="0.5" fill="#0F8F7D" opacity="0.8"/>
  <rect x="22" y="28" width="4" height="4" rx="0.5" fill="#0F8F7D" opacity="0.8"/>
  <!-- Door -->
  <path d="M22 40v-4a2 2 0 0 1 4 0v4H22z" fill="#0F8F7D"/>
  <!-- Stripes -->
  <rect x="18" y="22" width="12" height="1.5" fill="#C4756E" opacity="0.6"/>
  <rect x="18" y="30" width="12" height="1.5" fill="#C4756E" opacity="0.6"/>
</svg>
